<svg width="141" height="114" viewBox="0 0 141 114" fill="none" xmlns="http://www.w3.org/2000/svg">
<g id="Group 2280">
<g id="Group">
<path id="Vector" d="M70.3962 18.0044C79.7507 18.0044 88.0658 22.3958 93.6785 29.2023L107.814 19.1023C99.0834 7.46526 85.5713 0 70.3962 0C55.2211 0 41.9169 7.24569 33.186 18.8827L47.3217 28.9828C52.9344 22.1762 61.2496 18.0044 70.3962 18.0044Z" fill="url(#paint0_linear_348_303)"/>
<path id="Vector_2" d="M70.2917 78.4988C60.911 78.4988 52.5727 74.514 46.9443 68.3377L33.186 77.3034C34.6452 78.8972 36.3129 80.4911 37.9806 82.2843L70.7086 113.564L104.687 80.6904C105.73 79.6942 106.772 78.4988 107.814 77.3034L93.8475 68.1385C88.2191 74.514 79.6723 78.4988 70.2917 78.4988Z" fill="url(#paint1_linear_348_303)"/>
</g>
<path id="Vector_3" d="M39.4161 47.1537C39.4161 41.8863 40.5842 36.8296 42.9204 32.405L29.682 22.7131C25.7883 29.8767 23.4521 38.3045 23.4521 47.1537C23.4521 56.8457 25.5937 64.4307 29.682 71.3836L42.7257 61.6917C40.7789 57.4778 39.4161 52.4211 39.4161 47.1537Z" fill="url(#paint2_linear_348_303)"/>
<path id="Vector_4" d="M111.318 25.9577L98.0796 35.0825C100.221 39.2482 101.389 43.8107 101.389 48.7698C101.389 53.5306 100.221 58.2914 98.2743 62.2587L111.513 71.3836C115.601 64.6391 117.548 57.2996 117.548 48.7698C117.353 40.6368 115.212 32.7022 111.318 25.9577Z" fill="url(#paint3_linear_348_303)"/>
<path id="Vector_5" d="M70.5001 35.6918C78.4644 35.6918 85.1013 41.5912 85.1013 48.6706C85.1013 55.9466 78.4644 61.6494 70.5001 61.6494C62.3146 61.6494 55.8989 55.7499 55.8989 48.6706C55.8989 41.5912 62.5358 35.6918 70.5001 35.6918Z" fill="url(#paint4_linear_348_303)"/>
<path id="Vector_6" d="M129.978 9.73413C136.43 20.6303 140.261 33.3767 140.261 46.9454C140.261 60.5142 136.43 73.2606 129.978 83.9512L116.066 74.2886C120.704 66.2706 123.325 57.0192 123.325 46.9454C123.325 36.8717 120.704 27.6202 115.865 19.3967L129.978 9.73413ZM11.0215 84.3623C4.56958 73.4662 0.73877 60.7198 0.73877 46.9454C0.73877 33.3767 4.56958 20.4247 11.2231 9.73413L25.135 19.3967C20.2961 27.4146 17.4734 36.8717 17.4734 46.9454C17.4734 57.0192 20.2961 66.4762 24.9334 74.4941L11.0215 84.3623Z" fill="url(#paint5_linear_348_303)"/>
</g>
<defs>
<linearGradient id="paint0_linear_348_303" x1="70.5001" y1="0" x2="70.5001" y2="29.2023" gradientUnits="userSpaceOnUse">
<stop stop-color="#FF0487"/>
<stop offset="1" stop-color="#AC00FF"/>
</linearGradient>
<linearGradient id="paint1_linear_348_303" x1="70.5001" y1="68.1385" x2="70.5001" y2="113.564" gradientUnits="userSpaceOnUse">
<stop stop-color="#FF0487"/>
<stop offset="1" stop-color="#AC00FF"/>
</linearGradient>
<linearGradient id="paint2_linear_348_303" x1="33.1863" y1="22.7131" x2="33.1863" y2="71.3836" gradientUnits="userSpaceOnUse">
<stop stop-color="#FF0487"/>
<stop offset="1" stop-color="#AC00FF"/>
</linearGradient>
<linearGradient id="paint3_linear_348_303" x1="107.814" y1="25.9577" x2="107.814" y2="71.3836" gradientUnits="userSpaceOnUse">
<stop stop-color="#FF0487"/>
<stop offset="1" stop-color="#AC00FF"/>
</linearGradient>
<linearGradient id="paint4_linear_348_303" x1="70.5001" y1="35.6918" x2="70.5001" y2="61.6494" gradientUnits="userSpaceOnUse">
<stop stop-color="#FF0487"/>
<stop offset="1" stop-color="#AC00FF"/>
</linearGradient>
<linearGradient id="paint5_linear_348_303" x1="70.4999" y1="9.73413" x2="70.4999" y2="84.3623" gradientUnits="userSpaceOnUse">
<stop stop-color="#FF0487"/>
<stop offset="1" stop-color="#AC00FF"/>
</linearGradient>
</defs>
</svg>
