<svg xmlns="http://www.w3.org/2000/svg" width="213" height="39" viewBox="0 0 213 39" fill="none">
  <path d="M23.5706 6.66458C26.736 6.66458 29.5496 8.15052 31.4489 10.4537L36.2321 7.03607C33.2777 3.09835 28.7055 0.572266 23.5706 0.572266C18.4357 0.572266 13.9338 3.02405 10.9795 6.96177L15.7627 10.3794C17.6619 8.07622 20.4756 6.66458 23.5706 6.66458Z" fill="url(#paint0_linear_504_1894)"/>
  <path d="M23.5352 27.1346C20.361 27.1346 17.5395 25.7863 15.635 23.6963L10.9795 26.7301C11.4733 27.2694 12.0376 27.8088 12.6019 28.4155L23.6763 39L35.174 27.8762C35.5267 27.5391 35.8794 27.1346 36.2321 26.7301L31.506 23.6289C29.6015 25.7863 26.7094 27.1346 23.5352 27.1346Z" fill="url(#paint1_linear_504_1894)"/>
  <path d="M13.0874 16.528C13.0874 14.7456 13.4827 13.0346 14.2732 11.5374L9.79359 8.25781C8.47606 10.6818 7.68555 13.5336 7.68555 16.528C7.68555 19.8075 8.41019 22.3742 9.79359 24.7269L14.2073 21.4473C13.5485 20.0214 13.0874 18.3104 13.0874 16.528Z" fill="url(#paint2_linear_504_1894)"/>
  <path d="M37.4181 9.35547L32.9385 12.4431C33.6631 13.8527 34.0584 15.3965 34.0584 17.0746C34.0584 18.6855 33.6631 20.2965 33.0044 21.639L37.4839 24.7266C38.8673 22.4444 39.5261 19.9609 39.5261 17.0746C39.4602 14.3226 38.7356 11.6376 37.4181 9.35547Z" fill="url(#paint3_linear_504_1894)"/>
  <path d="M23.6058 12.6494C26.3007 12.6494 28.5465 14.6457 28.5465 17.0412C28.5465 19.5032 26.3007 21.4329 23.6058 21.4329C20.836 21.4329 18.665 19.4367 18.665 17.0412C18.665 14.6457 20.9108 12.6494 23.6058 12.6494Z" fill="url(#paint4_linear_504_1894)"/>
  <path d="M43.7319 3.86621C45.9151 7.55323 47.2113 11.8663 47.2113 16.4577C47.2113 21.0491 45.9151 25.3622 43.7319 28.9797L39.0244 25.71C40.5936 22.997 41.4805 19.8665 41.4805 16.4577C41.4805 13.049 40.5936 9.91848 38.9562 7.13583L43.7319 3.86621ZM3.47945 29.1188C1.29627 25.4318 0 21.1187 0 16.4577C0 11.8663 1.29627 7.48366 3.54767 3.86621L8.25516 7.13583C6.61778 9.84892 5.66263 13.049 5.66263 16.4577C5.66263 19.8665 6.61778 23.0665 8.18694 25.7796L3.47945 29.1188Z" fill="url(#paint5_linear_504_1894)"/>
  <path d="M69.756 10.3222H74.0803V24.5333L64.711 17.7274V23.8565H60.3867V9.64549L69.756 16.4513V10.3222Z" fill="white"/>
  <path d="M80.931 17.0894C80.931 17.7468 81.0614 18.3268 81.3223 18.8295C81.5831 19.3322 81.9537 19.7253 82.4342 20.0089C82.9147 20.2796 83.4913 20.415 84.1639 20.415C84.8366 20.415 85.4132 20.2796 85.8937 20.0089C86.3741 19.7253 86.7448 19.3322 87.0056 18.8295C87.2665 18.3268 87.3969 17.7468 87.3969 17.0894C87.3969 16.4191 87.2733 15.8391 87.0262 15.3492C86.7791 14.8465 86.4153 14.4598 85.9348 14.1892C85.4681 13.9056 84.8778 13.7638 84.1639 13.7638C83.4913 13.7638 82.9147 13.9056 82.4342 14.1892C81.9537 14.4598 81.5831 14.8465 81.3223 15.3492C81.0614 15.8391 80.931 16.4191 80.931 17.0894ZM76.1331 17.0894C76.1331 16.0066 76.339 15.027 76.7509 14.1505C77.1627 13.274 77.7324 12.5199 78.46 11.8883C79.1876 11.2567 80.0387 10.7734 81.0134 10.4382C81.9881 10.1031 83.0383 9.93551 84.1639 9.93551C85.3171 9.93551 86.381 10.1031 87.3557 10.4382C88.3304 10.7734 89.1815 11.2567 89.9091 11.8883C90.6367 12.5199 91.1995 13.274 91.5976 14.1505C91.9957 15.027 92.1948 16.0066 92.1948 17.0894C92.1948 18.1721 91.9957 19.1646 91.5976 20.0669C91.2132 20.9563 90.6641 21.7297 89.9503 22.3871C89.2364 23.0445 88.3853 23.5472 87.3969 23.8952C86.4222 24.2561 85.3445 24.4366 84.1639 24.4366C82.9833 24.4366 81.8988 24.2561 80.9104 23.8952C79.9357 23.5472 79.0915 23.0445 78.3776 22.3871C77.6638 21.7297 77.1078 20.9563 76.7097 20.0669C76.3253 19.1646 76.1331 18.1721 76.1331 17.0894Z" fill="white"/>
  <path d="M107.362 16.6833L109.586 10.3222H115.043L108.454 24.7266L103.614 17.9981L98.7753 24.7266L92.1859 10.3222H97.6428L99.8667 16.6833L103.614 9.64549L107.362 16.6833Z" fill="white"/>
  <path d="M127.422 18.3268L126.681 23.8565H121.842L124.518 9.64549L130.902 16.954L137.285 9.64549L139.962 23.8565H135.123L134.382 18.3268L130.902 22.5998L127.422 18.3268Z" fill="white"/>
  <path d="M144.852 22.1164V19.0615H152.471V22.1164H144.852ZM148.62 16.4707L146.849 20.2023L147.199 21.169L145.634 23.8565H140.486L148.62 9.35547L156.754 23.8565H151.606L150.082 21.3044L150.391 20.2023L148.62 16.4707Z" fill="white"/>
  <path d="M162.319 18.0561H166.952L171.071 23.8565H165.82L162.319 18.0561ZM158.098 10.3222H162.628V23.8565H158.098V10.3222ZM161.022 13.8991V10.3222H164.172C165.586 10.3222 166.733 10.522 167.611 10.9216C168.504 11.3212 169.156 11.869 169.567 12.565C169.993 13.2611 170.206 14.0603 170.206 14.9625C170.206 15.8519 169.993 16.6511 169.567 17.3601C169.156 18.0561 168.504 18.6039 167.611 19.0035C166.733 19.4031 165.586 19.6029 164.172 19.6029H161.022V16.4127H163.761C164.145 16.4127 164.461 16.3675 164.708 16.2773C164.955 16.1742 165.14 16.026 165.264 15.8326C165.401 15.6393 165.47 15.4137 165.47 15.1559C165.47 14.8852 165.401 14.6596 165.264 14.4792C165.14 14.2858 164.955 14.144 164.708 14.0538C164.461 13.9507 164.145 13.8991 163.761 13.8991H161.022Z" fill="white"/>
  <path d="M172.516 10.3222H177.252V23.8565H172.516V10.3222ZM181.68 10.3222H186.951L181.329 16.664L187.26 23.8565H181.782L175.955 16.7994L181.68 10.3222Z" fill="white"/>
  <path d="M191.734 23.8565V20.473H199.002V23.8565H191.734ZM191.734 13.7058V10.3222H199.002V13.7058H191.734ZM191.734 18.5395V15.2526H198.591V18.5395H191.734ZM188.604 10.3222H192.928V23.8565H188.604V10.3222Z" fill="white"/>
  <path d="M200.233 14.0925V10.3222H213V14.0925H208.882V23.8565H204.352V14.0925H200.233Z" fill="white"/>
  <defs>
    <linearGradient id="paint0_linear_504_1894" x1="23.6058" y1="0.572266" x2="23.6058" y2="10.4537" gradientUnits="userSpaceOnUse">
      <stop stop-color="#FF0487"/>
      <stop offset="1" stop-color="#AC00FF"/>
    </linearGradient>
    <linearGradient id="paint1_linear_504_1894" x1="23.6058" y1="23.6289" x2="23.6058" y2="39" gradientUnits="userSpaceOnUse">
      <stop stop-color="#FF0487"/>
      <stop offset="1" stop-color="#AC00FF"/>
    </linearGradient>
    <linearGradient id="paint2_linear_504_1894" x1="10.9794" y1="8.25781" x2="10.9794" y2="24.7269" gradientUnits="userSpaceOnUse">
      <stop stop-color="#FF0487"/>
      <stop offset="1" stop-color="#AC00FF"/>
    </linearGradient>
    <linearGradient id="paint3_linear_504_1894" x1="36.2323" y1="9.35547" x2="36.2323" y2="24.7266" gradientUnits="userSpaceOnUse">
      <stop stop-color="#FF0487"/>
      <stop offset="1" stop-color="#AC00FF"/>
    </linearGradient>
    <linearGradient id="paint4_linear_504_1894" x1="23.6058" y1="12.6494" x2="23.6058" y2="21.4329" gradientUnits="userSpaceOnUse">
      <stop stop-color="#FF0487"/>
      <stop offset="1" stop-color="#AC00FF"/>
    </linearGradient>
    <linearGradient id="paint5_linear_504_1894" x1="23.6057" y1="3.86621" x2="23.6057" y2="29.1188" gradientUnits="userSpaceOnUse">
      <stop stop-color="#FF0487"/>
      <stop offset="1" stop-color="#AC00FF"/>
    </linearGradient>
  </defs>
</svg>